<?xml version="1.0" standalone="no"?>
<!DOCTYPE svg PUBLIC "-//W3C//DTD SVG 20010904//EN"
 "http://www.w3.org/TR/2001/REC-SVG-20010904/DTD/svg10.dtd">
<svg version="1.0" xmlns="http://www.w3.org/2000/svg"
 width="340.000000pt" height="340.000000pt" viewBox="0 0 340.000000 340.000000"
 preserveAspectRatio="xMidYMid meet">
<metadata>
Created by potrace 1.11, written by Peter Selinger 2001-2013
</metadata>
<g transform="translate(0.000000,340.000000) scale(0.100000,-0.100000)"
fill="#000000" stroke="none">
<path d="M280 3129 c0 -42 183 -235 382 -401 199 -168 308 -298 399 -480 23
-45 52 -94 63 -107 12 -13 15 -21 9 -17 -9 5 -11 2 -7 -8 3 -9 9 -14 13 -11 4
2 8 -2 8 -10 0 -8 -5 -11 -10 -8 -6 4 -7 1 -1 -8 4 -8 10 -23 11 -34 2 -11 11
-58 20 -105 21 -102 23 -325 4 -415 -18 -86 -48 -180 -82 -253 l-28 -62 -63
38 c-72 44 -195 187 -465 540 -86 112 -162 206 -169 209 -8 3 -14 11 -14 18 0
7 -7 16 -16 19 -8 3 -13 10 -10 15 3 5 0 11 -8 14 -8 3 -17 19 -21 36 -4 18
-13 31 -21 31 -9 0 -12 5 -9 10 3 6 1 10 -6 10 -8 0 -8 4 1 15 9 11 9 15 1 15
-7 0 -11 8 -10 18 1 9 0 19 -1 22 -6 15 -4 90 3 90 5 0 7 6 5 12 -3 7 1 24 8
37 7 14 12 27 9 29 -2 2 -32 -4 -66 -12 -69 -18 -114 -48 -156 -103 -24 -31
-28 -46 -28 -102 0 -59 5 -75 47 -153 56 -106 254 -395 365 -532 93 -117 274
-293 309 -302 13 -3 24 -10 24 -15 0 -5 8 -5 17 -2 13 5 15 2 10 -11 -4 -9 -3
-15 2 -11 5 3 13 0 16 -6 4 -6 18 -8 31 -5 19 5 24 2 24 -11 0 -16 -2 -16 -11
-3 -8 11 -10 12 -7 1 2 -8 16 -15 31 -17 19 -2 25 1 20 9 -4 7 0 6 10 -2 20
-16 23 -25 5 -15 -8 4 -10 3 -5 -2 11 -11 30 -12 38 -1 3 4 12 0 20 -9 8 -10
9 -15 2 -11 -6 4 -14 3 -17 -2 -4 -6 7 -8 26 -6 17 3 37 0 43 -5 7 -6 24 -11
39 -12 14 -1 26 -5 26 -8 0 -3 17 -6 38 -5 24 0 39 -5 44 -15 5 -12 7 -12 7 3
1 9 5 17 10 17 4 0 22 30 39 68 24 52 40 116 67 272 20 113 47 266 61 340 67
352 39 591 -95 835 -25 46 -44 70 -55 69 -9 -1 -16 2 -16 7 0 5 6 9 13 9 8 0
7 3 -3 9 -8 6 -18 7 -22 5 -4 -3 -5 2 -2 11 4 9 -6 31 -22 53 -36 48 -165 176
-229 227 -62 49 -163 142 -188 173 -18 22 -22 22 -238 22 -149 0 -219 -3 -219
-11z m4 -1025 c3 -8 2 -12 -4 -9 -6 3 -10 10 -10 16 0 14 7 11 14 -7z m556
-950 c0 -8 -19 -13 -24 -6 -3 5 1 9 9 9 8 0 15 -2 15 -3z"/>
<path d="M1830 3096 c-66 -17 -131 -56 -156 -93 -53 -79 -151 -349 -185 -509
-34 -160 -33 -470 1 -482 6 -2 10 -18 10 -36 0 -23 9 -39 32 -60 29 -25 31
-30 18 -49 -12 -20 -11 -21 2 -9 23 19 32 -12 13 -47 -10 -21 -11 -31 -2 -40
6 -6 8 -11 4 -11 -4 0 6 -27 23 -60 29 -57 36 -110 15 -110 -5 0 1 -9 15 -20
14 -11 21 -20 15 -20 -5 0 -3 -5 5 -11 13 -9 12 -10 -2 -5 -20 6 -24 -4 -8
-20 7 -7 6 -11 -4 -11 -8 0 -14 4 -13 8 2 6 -3 9 -19 9 -4 0 0 -8 7 -17 12
-14 12 -16 -2 -11 -9 4 -16 1 -16 -7 0 -11 5 -11 20 -4 10 6 22 7 26 2 3 -4 4
-7 2 -5 -2 1 -15 -5 -28 -13 -13 -9 -28 -13 -34 -9 -7 4 -7 -2 1 -16 8 -14 8
-20 1 -16 -6 4 -19 -1 -29 -11 -31 -30 -119 -214 -132 -277 -26 -128 24 -257
161 -409 47 -52 126 -117 139 -113 3 0 19 -9 36 -21 17 -12 34 -19 38 -16 3 4
12 -2 20 -12 7 -10 18 -15 25 -11 6 4 19 2 27 -5 8 -6 17 -9 21 -6 3 4 13 1
21 -6 13 -9 14 -9 8 0 -8 14 25 19 38 5 4 -4 11 -7 14 -7 4 -1 16 -6 27 -11
11 -6 36 -11 55 -11 19 -1 43 -3 53 -7 40 -14 48 -15 42 -6 -3 6 -1 10 4 10 6
0 11 -4 11 -9 0 -5 17 -9 38 -9 138 -3 360 -47 847 -167 165 -41 308 -77 318
-79 16 -4 18 0 12 22 -11 46 -57 103 -130 162 -162 128 -361 199 -630 224
-253 24 -290 29 -398 55 -232 55 -426 182 -488 320 -51 111 -31 259 45 335 49
49 96 88 96 80 0 -4 7 -1 15 6 8 7 15 9 15 6 0 -4 10 -2 21 5 12 6 36 13 53
15 79 11 95 16 89 31 -5 13 -2 13 14 4 39 -20 125 42 142 103 9 33 7 198 -3
215 -7 10 -230 -45 -298 -73 -109 -46 -174 8 -225 189 -21 73 -25 273 -8 375
16 97 54 219 91 294 31 63 75 128 90 133 7 2 19 -25 29 -69 32 -131 83 -277
131 -370 65 -124 74 -133 154 -139 8 -1 21 -6 28 -12 7 -5 15 -8 18 -5 2 3
-31 144 -75 314 -144 555 -153 577 -231 622 -31 17 -40 18 -80 8z"/>
<path d="M1600 1560 c8 -5 20 -10 25 -10 6 0 3 5 -5 10 -8 5 -19 10 -25 10 -5
0 -3 -5 5 -10z"/>
</g>
</svg>
